<svg xmlns="http://www.w3.org/2000/svg" width="108.983" height="22.29" viewBox="0 0 108.983 22.29"><defs><style>.a{fill:#edede2;}</style></defs><path class="a" d="M16.1.1a10.992,10.992,0,0,1,3.22.5A4.588,4.588,0,0,1,21.3,2.329a4.992,4.992,0,0,1,.743,2.724A23.754,23.754,0,0,1,21.3,8.768l-1.486,3.963s-.991,2.229-1.486,3.467a20.049,20.049,0,0,1-1.486,3.22,12.4,12.4,0,0,1-1.981,1.734,17.064,17.064,0,0,1-1.981.743c-.991,0-1.734.248-2.724.248H0L8.668.348,8.721.192Zm-.743,6.439a.753.753,0,0,0,0-.991.91.91,0,0,0-.743-.248H13.374L8.421,17.684H9.659c.248,0,.5-.248.991-.5a3.419,3.419,0,0,0,.743-.991Z" transform="translate(0 0.148)"/><path class="a" d="M31.709,1.092,29.737,5.668H20.078l-.991,2.724h7.678l-2.229,5.2H16.859l-1.238,2.724h9.659L23.05,22.261H7.2L16.116.467h15.85Z" transform="translate(10.632 0.028)"/><path class="a" d="M30.5,0a12.105,12.105,0,0,1,3.22.248,4.978,4.978,0,0,1,1.981.991,5.181,5.181,0,0,1,.991,1.486,4.215,4.215,0,0,1,.248,1.734,3.141,3.141,0,0,1-.248,1.486L30.25,22.29H23.811l1.981-4.953H23.068L21.087,22.29H14.4L21.582,4.458a7.966,7.966,0,0,1,.991-1.734l.991-.991A7.285,7.285,0,0,1,24.979.972,8.443,8.443,0,0,1,27.151.319,12.044,12.044,0,0,1,30.5,0Zm-.743,6.687c.064-.1.343-.943.1-1.191a1.148,1.148,0,0,0-.812-.327,1.64,1.64,0,0,0-1.012.327,4.965,4.965,0,0,0-.748,1.191l-1.734,4.458h2.477Z" transform="translate(21.263)"/><path class="a" d="M36.46,16.941l-1.981,4.953H21.6L30.516.1h6.439L30.268,16.941H36.46Z" transform="translate(31.895 0.148)"/><path class="a" d="M52.414.1,50.185,5.549H40.526L39.288,8.273h7.678l-2.229,5.2H37.059L35.821,16.2h9.659L43.5,22.142H27.4L36.316.1Z" transform="translate(40.46 0.148)"/><path class="a" d="M52.985.2A4.5,4.5,0,0,1,55.74.951a3.367,3.367,0,0,1,1.5,1.753,5.982,5.982,0,0,1,.5,2.254,7.313,7.313,0,0,1-.5,2.254,5.454,5.454,0,0,1-1.252,2,18.445,18.445,0,0,1-1.5,1.252,14.835,14.835,0,0,1-1.5,1l-1.5.751a2.427,2.427,0,0,1,1.753,2,6.244,6.244,0,0,1-.5,3.507l-1.753,4.509h-5.51a.92.92,0,0,1-.751-.25c-.25-.25-.25-.5-.25-1l2-5.01a.976.976,0,0,0,0-1,.92.92,0,0,0-.751-.25H44.469l-3.006,7.514H34.7L43.467.2ZM50.23,6.462a.762.762,0,0,0,0-1c-.25-.25-.5-.5-.751-.5H48.226l-1.5,3.507h1.252a2.052,2.052,0,0,0,1.079-.473,3.035,3.035,0,0,0,.823-.92Z" transform="translate(51.239 0.048)"/></svg>