<svg xmlns="http://www.w3.org/2000/svg" xmlns:xlink="http://www.w3.org/1999/xlink" width="34.823" height="22" viewBox="0 0 34.823 22"><defs><style>.a,.b{fill:none;}.b{clip-rule:evenodd;}.c{clip-path:url(#a);}.d{clip-path:url(#b);}.e{fill:#ff1430;}.f{clip-path:url(#c);}.g{clip-path:url(#e);}.h{clip-path:url(#g);}</style><clipPath id="a"><rect class="a" width="3.376" height="22"/></clipPath><clipPath id="b"><rect class="a" width="1242.328" height="783.184"/></clipPath><clipPath id="c"><path class="b" d="M943.615,223.687v22h3.264v-9.959h2.388v-2.549H946.88v-6.955h3.065v-2.536Z" transform="translate(-943.615 -223.687)"/></clipPath><clipPath id="e"><path class="b" d="M967.3,223.687v2.536h2.239l.013,19.463h3.092l-.013-19.463H974.9v-2.536Z" transform="translate(-967.303 -223.687)"/></clipPath><clipPath id="g"><path class="b" d="M960.384,233.191V226.2h1.54a19.494,19.494,0,0,1,1.167,4.338c.243,1.442.372,2.656.372,2.656Zm3.464-9.5h-6.3v22h2.874v-9.945h3.168c.283,1.815.308,9.358.308,9.945h2.912C966.9,240.094,966.85,229.694,963.848,223.687Z" transform="translate(-957.549 -223.687)"/></clipPath></defs><g transform="translate(-943.615 -223.687)"><g transform="translate(952.895 223.687)"><g class="c"><g transform="translate(-613.878 -5.176)"><g class="d"><rect class="e" width="9.846" height="28.47" transform="translate(610.642 1.941)"/></g></g></g></g><g transform="translate(943.615 223.687)"><g class="f"><g transform="translate(-606.282 -5.176)"><g class="d"><rect class="e" width="12.8" height="28.47" transform="translate(603.047 1.941)"/></g></g></g></g><g transform="translate(970.843 223.687)"><g class="g"><g transform="translate(-627.803 -5.176)"><g class="d"><rect class="e" width="14.066" height="28.47" transform="translate(624.568 1.941)"/></g></g></g></g><g transform="translate(959.917 223.687)"><g class="h"><g transform="translate(-618.941 -5.176)"><g class="d"><rect class="e" width="15.754" height="28.47" transform="translate(615.706 1.941)"/></g></g></g></g></g></svg>