<svg xmlns="http://www.w3.org/2000/svg" width="13.79" height="13.368" viewBox="0 0 13.79 13.368"><defs><style>.a{fill:#fff;}</style></defs><path class="a" d="M141,136.714a4.054,4.054,0,0,1,1.4-3.136,1.245,1.245,0,0,1,1.043-.316,2.559,2.559,0,0,0,.508.028.6.6,0,0,1,.637.412c.378.981.744,1.963,1.111,2.95.124.338-.09.6-.271.846a7.3,7.3,0,0,1-.711.8c-.254.259-.288.406-.113.722a9.345,9.345,0,0,0,4.4,4.162c.068.028.135.068.2.1a.534.534,0,0,0,.688-.135c.361-.423.756-.812,1.088-1.258.22-.293.372-.344.7-.2.993.429,1.923.97,2.871,1.495a.44.44,0,0,1,.231.446c-.051,1.664-1,2.532-2.679,2.916a3.988,3.988,0,0,1-2.307-.288,12.99,12.99,0,0,1-4.331-2.346,15.877,15.877,0,0,1-2.639-2.995,11.383,11.383,0,0,1-1.506-2.7A4.6,4.6,0,0,1,141,136.714Z" transform="translate(-140.997 -133.248)"/></svg>