<svg xmlns="http://www.w3.org/2000/svg" width="17.853" height="18" viewBox="0 0 17.853 18"><defs><style>.a{fill:#fff;}</style></defs><g transform="translate(-12.993 -10.938)"><path class="a" d="M30.845,19.394a8.917,8.917,0,0,1-1.861,5.717,8.629,8.629,0,0,1-5.194,3.209,8.738,8.738,0,0,1-4.805-.381,7.415,7.415,0,0,1-1.015-.458.33.33,0,0,0-.293-.026q-2.225.72-4.458,1.428c-.066.022-.154.084-.205.037s.015-.147.037-.216c.3-.883.593-1.769.894-2.652.183-.538.359-1.073.549-1.608a.391.391,0,0,0-.044-.374,8.488,8.488,0,0,1-.853-2.055A8.786,8.786,0,0,1,20,11.189a8.749,8.749,0,0,1,7.564,1.692,8.816,8.816,0,0,1,2.725,3.787A9.509,9.509,0,0,1,30.845,19.394Zm-15.6,7.314c.908-.293,1.776-.571,2.637-.853a.321.321,0,0,1,.3.037,6.234,6.234,0,0,0,1.051.549,7.037,7.037,0,0,0,3.707.524,7.324,7.324,0,0,0,6.41-7,7.318,7.318,0,0,0-6.545-7.52,7.091,7.091,0,0,0-4.505,1.011A7.306,7.306,0,0,0,14.835,20.7a7.023,7.023,0,0,0,1.22,3.139.315.315,0,0,1,.051.319c-.136.374-.256.751-.385,1.124C15.568,25.745,15.418,26.206,15.249,26.708Z" transform="translate(0)"/><path class="a" d="M141,135.5a2.633,2.633,0,0,1,.908-2.036.809.809,0,0,1,.678-.205,1.66,1.66,0,0,0,.33.018.39.39,0,0,1,.414.267c.245.637.483,1.275.722,1.916.081.22-.059.392-.176.549a4.741,4.741,0,0,1-.461.516c-.165.168-.187.264-.073.469a6.069,6.069,0,0,0,2.857,2.7c.044.018.088.044.132.066a.347.347,0,0,0,.447-.088c.234-.275.491-.527.707-.817.143-.19.242-.223.458-.128.645.278,1.249.63,1.864.971a.286.286,0,0,1,.15.289,1.9,1.9,0,0,1-1.74,1.894,2.59,2.59,0,0,1-1.5-.187,8.437,8.437,0,0,1-2.813-1.524,10.313,10.313,0,0,1-1.714-1.945,7.393,7.393,0,0,1-.978-1.751A2.987,2.987,0,0,1,141,135.5Z" transform="translate(-123.316 -117.83)"/></g></svg>